<mxfile host="app.diagrams.net" modified="2022-12-11T11:36:26.232Z" agent="5.0 (Windows NT 10.0; Win64; x64) AppleWebKit/537.36 (KHTML, like Gecko) Chrome/108.0.0.0 Safari/537.36" etag="6xTVcbrdl3dB_EEgH3Ly" version="20.6.2" type="github">
  <diagram id="R2lEEEUBdFMjLlhIrx00" name="Page-1">
    <mxGraphModel dx="2076" dy="1078" grid="1" gridSize="10" guides="1" tooltips="1" connect="1" arrows="1" fold="1" page="1" pageScale="1" pageWidth="850" pageHeight="1100" math="0" shadow="0" extFonts="Permanent Marker^https://fonts.googleapis.com/css?family=Permanent+Marker">
      <root>
        <mxCell id="0" />
        <mxCell id="1" parent="0" />
        <mxCell id="YiypqD04uemnfpa7y3yJ-10" value="" style="edgeStyle=orthogonalEdgeStyle;rounded=0;orthogonalLoop=1;jettySize=auto;html=1;" edge="1" parent="1" source="YiypqD04uemnfpa7y3yJ-1" target="YiypqD04uemnfpa7y3yJ-2">
          <mxGeometry relative="1" as="geometry" />
        </mxCell>
        <mxCell id="YiypqD04uemnfpa7y3yJ-1" value="Заходим в магазин" style="rounded=1;whiteSpace=wrap;html=1;" vertex="1" parent="1">
          <mxGeometry x="85" y="480" width="120" height="60" as="geometry" />
        </mxCell>
        <mxCell id="YiypqD04uemnfpa7y3yJ-2" value="Хлеб свежий?" style="rhombus;whiteSpace=wrap;html=1;" vertex="1" parent="1">
          <mxGeometry x="85" y="580" width="120" height="80" as="geometry" />
        </mxCell>
        <mxCell id="YiypqD04uemnfpa7y3yJ-4" value="" style="endArrow=classic;html=1;rounded=0;exitX=1;exitY=0.5;exitDx=0;exitDy=0;entryX=1;entryY=0.5;entryDx=0;entryDy=0;" edge="1" parent="1" source="YiypqD04uemnfpa7y3yJ-2" target="YiypqD04uemnfpa7y3yJ-1">
          <mxGeometry width="50" height="50" relative="1" as="geometry">
            <mxPoint x="185" y="690" as="sourcePoint" />
            <mxPoint x="245" y="470" as="targetPoint" />
            <Array as="points">
              <mxPoint x="245" y="620" />
              <mxPoint x="245" y="510" />
            </Array>
          </mxGeometry>
        </mxCell>
        <mxCell id="YiypqD04uemnfpa7y3yJ-5" value="НЕТ" style="text;html=1;align=center;verticalAlign=middle;resizable=0;points=[];autosize=1;strokeColor=none;fillColor=none;" vertex="1" parent="1">
          <mxGeometry x="195" y="595" width="50" height="30" as="geometry" />
        </mxCell>
        <mxCell id="YiypqD04uemnfpa7y3yJ-28" value="" style="edgeStyle=orthogonalEdgeStyle;rounded=0;orthogonalLoop=1;jettySize=auto;html=1;" edge="1" parent="1" source="YiypqD04uemnfpa7y3yJ-6" target="YiypqD04uemnfpa7y3yJ-27">
          <mxGeometry relative="1" as="geometry" />
        </mxCell>
        <mxCell id="YiypqD04uemnfpa7y3yJ-6" value="Оплачиваем покупку картой" style="rounded=1;whiteSpace=wrap;html=1;" vertex="1" parent="1">
          <mxGeometry x="90" y="830" width="120" height="60" as="geometry" />
        </mxCell>
        <mxCell id="YiypqD04uemnfpa7y3yJ-8" value="Идем домой" style="whiteSpace=wrap;html=1;rounded=1;" vertex="1" parent="1">
          <mxGeometry x="180" y="1100" width="120" height="60" as="geometry" />
        </mxCell>
        <mxCell id="YiypqD04uemnfpa7y3yJ-12" value="" style="edgeStyle=orthogonalEdgeStyle;rounded=0;orthogonalLoop=1;jettySize=auto;html=1;" edge="1" parent="1" source="YiypqD04uemnfpa7y3yJ-11" target="YiypqD04uemnfpa7y3yJ-1">
          <mxGeometry relative="1" as="geometry" />
        </mxCell>
        <mxCell id="YiypqD04uemnfpa7y3yJ-19" style="edgeStyle=orthogonalEdgeStyle;rounded=0;orthogonalLoop=1;jettySize=auto;html=1;exitX=1;exitY=0.5;exitDx=0;exitDy=0;entryX=1;entryY=0.5;entryDx=0;entryDy=0;" edge="1" parent="1" source="YiypqD04uemnfpa7y3yJ-11" target="YiypqD04uemnfpa7y3yJ-13">
          <mxGeometry relative="1" as="geometry">
            <mxPoint x="260" y="250" as="targetPoint" />
            <Array as="points">
              <mxPoint x="240" y="370" />
              <mxPoint x="240" y="240" />
              <mxPoint x="205" y="240" />
            </Array>
          </mxGeometry>
        </mxCell>
        <mxCell id="YiypqD04uemnfpa7y3yJ-20" value="Нет" style="edgeLabel;html=1;align=center;verticalAlign=middle;resizable=0;points=[];" vertex="1" connectable="0" parent="YiypqD04uemnfpa7y3yJ-19">
          <mxGeometry x="-0.7312" y="-1" relative="1" as="geometry">
            <mxPoint as="offset" />
          </mxGeometry>
        </mxCell>
        <mxCell id="YiypqD04uemnfpa7y3yJ-11" value="Магазин открыт?" style="rhombus;whiteSpace=wrap;html=1;" vertex="1" parent="1">
          <mxGeometry x="80" y="330" width="130" height="80" as="geometry" />
        </mxCell>
        <mxCell id="YiypqD04uemnfpa7y3yJ-14" value="" style="edgeStyle=orthogonalEdgeStyle;rounded=0;orthogonalLoop=1;jettySize=auto;html=1;exitX=0.5;exitY=1;exitDx=0;exitDy=0;" edge="1" parent="1" source="YiypqD04uemnfpa7y3yJ-13" target="YiypqD04uemnfpa7y3yJ-11">
          <mxGeometry relative="1" as="geometry">
            <mxPoint x="150" y="300" as="sourcePoint" />
          </mxGeometry>
        </mxCell>
        <mxCell id="YiypqD04uemnfpa7y3yJ-13" value="Выбираем магазин" style="rounded=1;whiteSpace=wrap;html=1;" vertex="1" parent="1">
          <mxGeometry x="85" y="200" width="120" height="60" as="geometry" />
        </mxCell>
        <mxCell id="YiypqD04uemnfpa7y3yJ-21" value="Да" style="text;html=1;strokeColor=none;fillColor=none;align=center;verticalAlign=middle;whiteSpace=wrap;rounded=0;" vertex="1" parent="1">
          <mxGeometry x="135" y="430" width="60" height="30" as="geometry" />
        </mxCell>
        <mxCell id="YiypqD04uemnfpa7y3yJ-25" value="" style="edgeStyle=orthogonalEdgeStyle;rounded=0;orthogonalLoop=1;jettySize=auto;html=1;" edge="1" parent="1" source="YiypqD04uemnfpa7y3yJ-22" target="YiypqD04uemnfpa7y3yJ-23">
          <mxGeometry relative="1" as="geometry" />
        </mxCell>
        <mxCell id="YiypqD04uemnfpa7y3yJ-22" value="Да" style="text;html=1;strokeColor=none;fillColor=none;align=center;verticalAlign=middle;whiteSpace=wrap;rounded=0;" vertex="1" parent="1">
          <mxGeometry x="130" y="660" width="60" height="30" as="geometry" />
        </mxCell>
        <mxCell id="YiypqD04uemnfpa7y3yJ-24" value="" style="edgeStyle=orthogonalEdgeStyle;rounded=0;orthogonalLoop=1;jettySize=auto;html=1;" edge="1" parent="1" source="YiypqD04uemnfpa7y3yJ-23" target="YiypqD04uemnfpa7y3yJ-6">
          <mxGeometry relative="1" as="geometry" />
        </mxCell>
        <mxCell id="YiypqD04uemnfpa7y3yJ-23" value="Деньги есть?" style="rhombus;whiteSpace=wrap;html=1;" vertex="1" parent="1">
          <mxGeometry x="90" y="720" width="120" height="80" as="geometry" />
        </mxCell>
        <mxCell id="YiypqD04uemnfpa7y3yJ-29" value="" style="edgeStyle=orthogonalEdgeStyle;rounded=0;orthogonalLoop=1;jettySize=auto;html=1;" edge="1" parent="1" source="YiypqD04uemnfpa7y3yJ-27" target="YiypqD04uemnfpa7y3yJ-8">
          <mxGeometry relative="1" as="geometry" />
        </mxCell>
        <mxCell id="YiypqD04uemnfpa7y3yJ-35" value="" style="edgeStyle=orthogonalEdgeStyle;rounded=0;orthogonalLoop=1;jettySize=auto;html=1;" edge="1" parent="1" source="YiypqD04uemnfpa7y3yJ-27" target="YiypqD04uemnfpa7y3yJ-33">
          <mxGeometry relative="1" as="geometry" />
        </mxCell>
        <mxCell id="YiypqD04uemnfpa7y3yJ-27" value="Оплата прошла?" style="rhombus;whiteSpace=wrap;html=1;" vertex="1" parent="1">
          <mxGeometry x="90" y="940" width="120" height="80" as="geometry" />
        </mxCell>
        <mxCell id="YiypqD04uemnfpa7y3yJ-32" value="Оплачиваем наличкой" style="rounded=1;whiteSpace=wrap;html=1;" vertex="1" parent="1">
          <mxGeometry x="255" y="830" width="120" height="60" as="geometry" />
        </mxCell>
        <mxCell id="YiypqD04uemnfpa7y3yJ-36" value="" style="edgeStyle=orthogonalEdgeStyle;rounded=0;orthogonalLoop=1;jettySize=auto;html=1;" edge="1" parent="1" source="YiypqD04uemnfpa7y3yJ-33" target="YiypqD04uemnfpa7y3yJ-32">
          <mxGeometry relative="1" as="geometry" />
        </mxCell>
        <mxCell id="YiypqD04uemnfpa7y3yJ-37" value="" style="edgeStyle=orthogonalEdgeStyle;rounded=0;orthogonalLoop=1;jettySize=auto;html=1;" edge="1" parent="1" source="YiypqD04uemnfpa7y3yJ-33" target="YiypqD04uemnfpa7y3yJ-8">
          <mxGeometry relative="1" as="geometry" />
        </mxCell>
        <mxCell id="YiypqD04uemnfpa7y3yJ-33" value="Есть ли наличка" style="rhombus;whiteSpace=wrap;html=1;" vertex="1" parent="1">
          <mxGeometry x="250" y="940" width="130" height="80" as="geometry" />
        </mxCell>
        <mxCell id="YiypqD04uemnfpa7y3yJ-38" value="Text" style="text;html=1;strokeColor=none;fillColor=none;align=center;verticalAlign=middle;whiteSpace=wrap;rounded=0;" vertex="1" parent="1">
          <mxGeometry x="145" y="900" width="60" height="30" as="geometry" />
        </mxCell>
        <mxCell id="YiypqD04uemnfpa7y3yJ-39" value="Нет" style="text;html=1;strokeColor=none;fillColor=none;align=center;verticalAlign=middle;whiteSpace=wrap;rounded=0;" vertex="1" parent="1">
          <mxGeometry x="300" y="1030" width="60" height="30" as="geometry" />
        </mxCell>
        <mxCell id="YiypqD04uemnfpa7y3yJ-40" value="Да" style="text;html=1;strokeColor=none;fillColor=none;align=center;verticalAlign=middle;whiteSpace=wrap;rounded=0;" vertex="1" parent="1">
          <mxGeometry x="310" y="910" width="60" height="30" as="geometry" />
        </mxCell>
      </root>
    </mxGraphModel>
  </diagram>
</mxfile>
